<svg width="77" height="76" viewBox="0 0 77 76" fill="none" xmlns="http://www.w3.org/2000/svg">
<g filter="url(#filter0_i_288_1025)">
<ellipse cx="38.5" cy="38" rx="38.5" ry="38" fill="white"/>
</g>
<path d="M75.5 38C75.5 58.14 58.9531 74.5 38.5 74.5C18.0469 74.5 1.5 58.14 1.5 38C1.5 17.86 18.0469 1.5 38.5 1.5C58.9531 1.5 75.5 17.86 75.5 38Z" stroke="#7061DE" stroke-width="3"/>
<path d="M49.6667 36.3333H39.6667V26.3333C39.6667 25.8913 39.4911 25.4673 39.1785 25.1548C38.866 24.8422 38.442 24.6666 38 24.6666C37.558 24.6666 37.1341 24.8422 36.8215 25.1548C36.5089 25.4673 36.3334 25.8913 36.3334 26.3333V36.3333H26.3334C25.8913 36.3333 25.4674 36.5089 25.1548 36.8214C24.8423 37.134 24.6667 37.5579 24.6667 38C24.6667 38.442 24.8423 38.8659 25.1548 39.1785C25.4674 39.491 25.8913 39.6666 26.3334 39.6666H36.3334V49.6666C36.3334 50.1087 36.5089 50.5326 36.8215 50.8451C37.1341 51.1577 37.558 51.3333 38 51.3333C38.442 51.3333 38.866 51.1577 39.1785 50.8451C39.4911 50.5326 39.6667 50.1087 39.6667 49.6666V39.6666H49.6667C50.1087 39.6666 50.5326 39.491 50.8452 39.1785C51.1578 38.8659 51.3334 38.442 51.3334 38C51.3334 37.5579 51.1578 37.134 50.8452 36.8214C50.5326 36.5089 50.1087 36.3333 49.6667 36.3333Z" fill="#7061DE"/>
<defs>
<filter id="filter0_i_288_1025" x="0" y="0" width="77" height="80" filterUnits="userSpaceOnUse" color-interpolation-filters="sRGB">
<feFlood flood-opacity="0" result="BackgroundImageFix"/>
<feBlend mode="normal" in="SourceGraphic" in2="BackgroundImageFix" result="shape"/>
<feColorMatrix in="SourceAlpha" type="matrix" values="0 0 0 0 0 0 0 0 0 0 0 0 0 0 0 0 0 0 127 0" result="hardAlpha"/>
<feOffset dy="4"/>
<feGaussianBlur stdDeviation="7"/>
<feComposite in2="hardAlpha" operator="arithmetic" k2="-1" k3="1"/>
<feColorMatrix type="matrix" values="0 0 0 0 0 0 0 0 0 0 0 0 0 0 0 0 0 0 0.25 0"/>
<feBlend mode="normal" in2="shape" result="effect1_innerShadow_288_1025"/>
</filter>
</defs>
</svg>
